<?xml version="1.0" standalone="no"?>
<!DOCTYPE svg PUBLIC "-//W3C//DTD SVG 20010904//EN"
 "http://www.w3.org/TR/2001/REC-SVG-20010904/DTD/svg10.dtd">
<svg version="1.0" xmlns="http://www.w3.org/2000/svg"
 width="1080.000000pt" height="1076.000000pt" viewBox="0 0 1080.000000 1076.000000"
 preserveAspectRatio="xMidYMid meet">

<g transform="translate(0.000000,1076.000000) scale(0.100000,-0.100000)"
fill="#000000" stroke="none">
<path d="M3728 9423 c-10 -2 -18 -13 -18 -24 0 -12 7 -19 18 -19 24 1 50 22
45 38 -5 12 -14 13 -45 5z"/>
<path d="M7062 9403 c4 -22 43 -25 43 -3 0 8 -11 16 -23 18 -19 3 -23 0 -20
-15z"/>
<path d="M3260 9229 c0 -5 5 -7 10 -4 6 3 10 8 10 11 0 2 -4 4 -10 4 -5 0 -10
-5 -10 -11z"/>
<path d="M3302 9100 c3 -25 19 -32 101 -43 43 -6 47 -5 47 13 0 24 -27 36
-100 46 -50 7 -52 6 -48 -16z"/>
<path d="M7460 9079 c0 -5 5 -7 10 -4 6 3 10 8 10 11 0 2 -4 4 -10 4 -5 0 -10
-5 -10 -11z"/>
<path d="M2528 8564 c-10 -3 -18 -14 -18 -25 0 -18 8 -19 121 -19 95 0 124 3
136 15 8 9 12 19 8 23 -8 8 -222 13 -247 6z"/>
<path d="M8248 8553 c7 -3 16 -2 19 1 4 3 -2 6 -13 5 -11 0 -14 -3 -6 -6z"/>
<path d="M1901 7841 c-18 -12 -6 -42 14 -36 8 3 22 7 31 10 13 4 14 8 4 20
-14 17 -29 19 -49 6z"/>
<path d="M5722 6834 c-136 -131 -152 -150 -147 -173 5 -23 0 -29 -42 -51 -31
-15 -108 -85 -218 -196 -156 -158 -207 -204 -380 -341 -65 -52 -234 -211 -359
-338 -46 -47 -87 -98 -98 -124 -10 -25 -36 -68 -56 -96 l-37 -50 -3 -451 c-2
-381 0 -453 12 -463 11 -9 62 -9 217 -1 112 5 381 13 597 17 289 5 395 9 402
18 7 8 9 90 8 216 l-3 204 -30 -1 c-16 0 -55 -4 -85 -9 l-55 -8 70 74 c39 41
140 148 226 239 229 244 522 554 609 645 130 137 190 205 190 213 0 8 -66 94
-359 472 -49 63 -129 167 -179 230 -50 65 -97 116 -108 118 -13 2 -68 -44
-172 -144z m-44 -481 c21 -5 22 -9 22 -115 l0 -109 -62 7 c-35 4 -83 10 -108
13 l-45 6 -3 94 c-1 52 0 101 3 109 4 12 20 13 88 8 45 -4 92 -10 105 -13z
m345 -40 c11 -6 9 -223 -3 -223 -13 0 -160 20 -187 26 -22 4 -23 8 -23 110 l0
106 103 -7 c56 -4 105 -9 110 -12z m-347 -289 c23 -6 24 -9 24 -115 l0 -109
-62 7 c-35 3 -83 9 -108 12 l-45 6 -3 109 -3 109 87 -7 c48 -3 97 -9 110 -12z
m258 -29 c38 -4 75 -9 83 -12 10 -4 13 -33 13 -114 l0 -109 -42 6 c-24 3 -72
8 -108 12 l-65 7 -3 99 c-3 117 0 128 30 122 13 -3 54 -8 92 -11z"/>
<path d="M7223 6248 c-17 -18 -101 -116 -188 -218 -165 -195 -175 -206 -523
-613 -157 -183 -223 -268 -227 -290 -9 -45 -2 -564 7 -573 5 -4 61 -11 125
-15 721 -50 1391 -143 1928 -269 135 -32 128 -28 121 -60 -9 -47 -121 -288
-197 -426 -65 -118 -193 -314 -205 -314 -2 0 -71 29 -153 64 -269 117 -591
217 -902 280 -625 128 -1462 151 -2234 61 -209 -24 -288 -41 -265 -55 7 -4
179 -8 383 -8 703 0 1266 -66 1812 -211 213 -57 622 -203 815 -291 167 -76
290 -139 290 -148 0 -9 -112 -125 -201 -207 -127 -119 -330 -275 -357 -275 -7
0 -67 34 -135 77 -205 128 -507 278 -712 353 -27 10 -81 30 -120 45 -446 168
-961 279 -1550 335 -343 32 -1044 53 -1081 32 -39 -22 9 -31 339 -63 630 -62
1416 -249 1844 -440 24 -11 45 -19 48 -19 15 0 352 -158 474 -222 159 -83 388
-223 489 -297 32 -23 32 -24 12 -38 -62 -43 -437 -184 -613 -230 l-68 -18
-177 92 c-177 91 -429 208 -552 256 -173 67 -318 118 -455 160 -82 26 -186 58
-230 72 -250 79 -1022 243 -1100 233 l-30 -4 35 -15 c20 -9 121 -42 225 -74
417 -126 622 -196 855 -290 63 -26 138 -56 165 -67 109 -43 519 -251 665 -339
150 -89 154 -93 125 -101 -59 -17 -480 -14 -640 5 -673 78 -1253 323 -1750
739 -358 299 -627 638 -838 1056 -43 84 -68 124 -82 128 -11 3 -49 4 -83 2
l-62 -3 53 -116 c130 -282 311 -556 542 -819 371 -422 877 -762 1425 -956 344
-121 761 -194 1121 -194 169 0 213 7 225 34 12 28 43 31 130 10 65 -15 85 -15
162 -5 599 82 1205 350 1677 741 123 102 348 320 373 363 9 15 20 27 24 27 12
0 195 234 274 350 166 245 289 492 389 780 45 130 111 369 103 375 -2 1 -54
13 -116 25 -160 33 -161 34 -164 173 -3 103 -5 112 -23 115 -24 5 -27 8 -134
137 -46 55 -112 129 -147 165 -35 36 -82 90 -106 120 -44 58 -294 354 -362
430 -23 25 -62 70 -87 100 -214 255 -326 380 -339 380 -9 0 -30 -15 -47 -32z
m-40 -698 c4 0 7 -50 7 -111 l0 -111 -82 6 c-46 4 -95 9 -110 12 l-28 6 0 107
c0 59 2 110 5 113 3 2 49 -1 102 -8 54 -7 101 -13 106 -14z m272 -28 l60 -7 3
-113 3 -113 -83 7 c-143 12 -133 2 -136 133 l-3 112 48 -6 c26 -3 75 -9 108
-13z m-379 -287 c125 -11 114 1 114 -126 l0 -111 -67 7 c-38 4 -86 10 -108 14
l-40 7 -3 99 c-3 107 1 130 21 122 8 -3 45 -8 83 -12z m374 -43 l65 -7 3 -113
3 -113 -63 7 c-35 4 -83 10 -108 13 l-45 6 -3 113 -3 113 43 -6 c24 -3 72 -9
108 -13z m1128 -649 c3 -10 -17 -13 -77 -13 -66 0 -81 3 -81 15 0 13 13 15 77
13 50 -2 78 -7 81 -15z"/>
<path d="M310 4754 c-78 -36 -110 -69 -110 -114 0 -81 74 -452 96 -485 8 -11
14 -35 14 -54 0 -46 37 -177 61 -219 11 -19 23 -61 28 -95 10 -67 43 -164 128
-382 66 -167 81 -198 144 -293 26 -40 55 -94 64 -120 28 -79 95 -213 144 -287
25 -38 51 -83 58 -98 31 -70 221 -337 377 -532 223 -277 530 -577 841 -821
806 -634 1790 -1019 2820 -1106 189 -15 676 -15 860 0 673 58 1302 232 1900
527 757 373 1379 888 1886 1560 115 153 250 358 314 480 32 60 73 130 91 155
92 128 288 579 397 915 82 253 175 652 163 698 -9 31 -75 119 -85 112 -5 -3
-14 -38 -21 -78 -110 -678 -375 -1346 -782 -1973 -227 -349 -601 -770 -948
-1066 -632 -539 -1424 -934 -2215 -1103 -464 -99 -655 -119 -1135 -119 -346 0
-391 2 -586 27 -625 79 -1149 234 -1689 500 -520 257 -919 541 -1351 963 -183
178 -406 440 -556 651 -455 640 -752 1353 -883 2121 l-16 94 46 84 c43 80 44
84 23 84 -13 0 -48 -12 -78 -26z"/>
<path d="M8859 4586 c-82 -321 -153 -517 -273 -761 -441 -899 -1251 -1573
-2216 -1844 -174 -49 -287 -73 -491 -103 -135 -20 -193 -23 -469 -23 -311 0
-357 3 -590 41 -326 53 -677 166 -969 314 -383 192 -615 355 -920 645 -80 76
-246 259 -322 355 -55 70 -201 286 -257 380 -53 91 -152 284 -197 388 -15 34
-33 62 -39 62 -28 0 -88 -23 -92 -35 -6 -15 73 -192 154 -345 567 -1075 1600
-1772 2826 -1907 187 -20 579 -23 761 -5 711 71 1369 332 1920 763 108 84 290
251 397 364 346 366 641 867 802 1360 45 138 96 332 96 365 0 24 -3 25 -55 26
l-55 0 -11 -40z"/>
<path d="M10123 4599 c-49 -14 -95 -76 -115 -156 -13 -53 -14 -70 -5 -79 13
-12 229 -64 264 -64 24 0 26 6 43 96 20 103 -15 175 -99 203 -39 13 -44 13
-88 0z m102 -94 c27 -26 31 -57 15 -100 -9 -24 -14 -26 -43 -20 -106 22 -124
34 -113 78 16 66 94 89 141 42z"/>
<path d="M472 4543 c2 -19 12 -32 31 -41 44 -21 67 -112 31 -126 -10 -4 -14
-16 -12 -38 5 -49 26 -42 162 46 116 76 118 79 112 109 -4 17 -10 35 -14 39
-9 9 -225 38 -280 38 -30 0 -33 -2 -30 -27z m188 -77 c0 -15 -24 -28 -34 -19
-13 14 -5 33 14 33 11 0 20 -6 20 -14z"/>
<path d="M10646 4167 c-39 -166 -41 -181 -27 -173 6 4 23 31 38 59 20 40 27
71 31 133 6 120 -11 112 -42 -19z"/>
<path d="M708 4226 c-70 -23 -130 -44 -134 -48 -3 -4 -3 -19 0 -34 7 -25 9
-26 51 -20 42 7 45 6 60 -24 28 -54 51 -70 101 -70 58 0 104 40 104 90 0 44
-28 137 -43 142 -7 3 -69 -14 -139 -36z m107 -91 c0 -25 -4 -30 -24 -30 -28 0
-47 25 -38 49 5 12 16 16 34 14 24 -3 28 -8 28 -33z"/>
<path d="M9951 4233 c-13 -25 -41 -123 -41 -144 0 -14 28 -27 129 -60 71 -23
136 -39 144 -36 13 5 57 126 57 159 0 19 -39 31 -55 18 -7 -6 -17 -28 -24 -50
-9 -30 -17 -40 -33 -40 -19 0 -20 4 -13 55 5 47 4 56 -11 62 -22 8 -47 -8 -54
-37 -7 -29 -35 -49 -50 -34 -7 7 -6 23 4 52 13 37 13 43 0 57 -20 20 -41 19
-53 -2z"/>
<path d="M9874 3982 c-16 -11 -76 -167 -72 -189 2 -11 13 -19 29 -21 19 -2 28
3 37 23 6 14 17 25 24 25 7 0 55 -16 107 -36 90 -35 95 -36 108 -18 29 40 20
48 -101 94 l-88 34 5 32 c4 23 0 37 -12 48 -20 18 -22 19 -37 8z"/>
<path d="M665 3909 c-15 -23 5 -60 36 -66 42 -8 67 -63 50 -109 -15 -42 -14
-74 4 -80 21 -8 235 181 235 208 0 10 -5 28 -10 39 -10 17 -23 19 -160 19 -94
0 -151 -4 -155 -11z m193 -81 c-7 -19 -38 -22 -38 -4 0 10 9 16 21 16 12 0 19
-5 17 -12z"/>
<path d="M9734 3655 c-4 -14 -5 -28 -3 -30 2 -2 62 -29 133 -60 122 -54 130
-56 143 -39 29 40 24 45 -118 107 -123 55 -146 58 -155 22z"/>
<path d="M933 3600 c-68 -33 -123 -65 -123 -73 0 -7 6 -22 14 -32 12 -17 17
-18 40 -7 15 7 33 12 41 12 21 0 18 -40 -5 -70 -22 -28 -25 -52 -10 -81 16
-28 27 -24 57 22 24 37 30 40 59 34 66 -12 134 42 134 107 0 32 -56 148 -72
148 -7 0 -68 -27 -135 -60z m129 -64 c16 -36 4 -58 -29 -54 -34 4 -57 53 -33
68 26 17 50 11 62 -14z"/>
<path d="M9650 3480 c-11 -27 -9 -35 19 -85 17 -30 31 -59 31 -64 0 -5 -32
-13 -70 -17 -64 -6 -72 -9 -85 -34 -19 -36 -13 -41 134 -116 109 -56 114 -57
127 -39 22 29 14 46 -35 75 -59 34 -63 50 -14 50 64 0 72 12 43 64 -13 25 -21
48 -18 52 4 3 32 -6 62 -22 46 -23 57 -25 70 -15 23 19 20 48 -6 64 -53 33
-220 117 -232 117 -8 0 -19 -13 -26 -30z"/>
<path d="M1175 3360 c-4 -6 -4 -26 -1 -45 7 -38 -3 -47 -111 -105 -34 -18 -64
-39 -67 -46 -3 -7 3 -23 13 -35 l18 -22 93 51 c51 29 97 52 101 52 5 0 16 -11
25 -26 18 -27 50 -29 66 -4 14 22 -80 184 -109 188 -12 2 -24 -2 -28 -8z"/>
<path d="M9440 3110 c-6 -11 -8 -25 -5 -30 8 -13 231 -150 244 -150 6 0 17 12
23 26 11 23 9 28 -11 44 -50 37 -210 130 -225 130 -8 0 -20 -9 -26 -20z"/>
<path d="M1253 3015 c-61 -41 -114 -79 -117 -84 -8 -13 15 -51 31 -51 7 0 34
14 60 30 55 35 64 26 38 -36 -19 -45 -8 -57 45 -49 61 9 68 -9 18 -43 -64 -44
-71 -54 -52 -81 10 -14 22 -20 33 -16 42 16 231 152 231 166 0 33 -34 49 -103
49 -77 0 -80 5 -47 79 11 24 20 51 20 61 0 15 -29 50 -41 50 -2 0 -54 -34
-116 -75z"/>
<path d="M9281 2868 c-13 -20 -11 -24 20 -50 52 -44 196 -138 211 -138 18 0
100 126 96 148 -2 10 -14 18 -29 20 -21 2 -31 -4 -47 -32 -12 -20 -27 -36 -34
-36 -7 0 -50 25 -95 55 -46 30 -88 55 -95 55 -7 0 -19 -10 -27 -22z"/>
<path d="M1510 2656 c-135 -104 -130 -94 -75 -166 51 -66 69 -79 93 -63 26 16
24 28 -8 68 -17 21 -29 43 -27 49 8 24 40 17 67 -16 24 -27 31 -31 47 -22 26
16 27 47 3 69 -11 10 -20 26 -20 37 0 30 36 21 67 -18 26 -33 32 -35 51 -25
12 6 22 18 22 26 0 23 -90 135 -108 135 -9 0 -60 -33 -112 -74z"/>
<path d="M9017 2528 c-9 -5 -22 -18 -27 -29 -9 -17 1 -41 61 -149 75 -133 96
-153 119 -111 5 11 7 33 4 51 -9 44 35 90 85 90 26 0 40 6 49 21 17 26 11 32
-58 59 -177 69 -213 80 -233 68z m123 -113 c10 -12 9 -16 -5 -21 -16 -6 -34 9
-35 29 0 13 27 8 40 -8z"/>
<path d="M1700 2409 c-101 -92 -117 -119 -81 -139 16 -8 29 -2 73 35 62 52 67
46 43 -51 -9 -37 -14 -77 -11 -89 12 -46 34 -37 141 61 58 53 105 98 105 101
0 2 -5 13 -10 24 -15 27 -39 23 -80 -11 -35 -31 -66 -40 -57 -17 2 6 12 38 21
70 16 54 16 61 1 83 -8 13 -22 24 -30 24 -8 0 -60 -41 -115 -91z"/>
<path d="M8800 2278 c-52 -27 -80 -74 -80 -136 0 -56 21 -95 65 -122 97 -60
235 11 235 121 0 43 -7 51 -38 42 -15 -3 -25 -18 -32 -44 -12 -44 -42 -69 -83
-69 -36 0 -77 40 -77 75 0 32 50 85 79 85 23 0 45 34 37 56 -8 21 -56 17 -106
-8z"/>
<path d="M2020 2235 c-12 -15 -5 -55 11 -55 26 0 1 -43 -61 -105 -38 -38 -70
-78 -70 -87 0 -10 12 -24 26 -30 24 -11 29 -8 98 65 40 42 76 77 80 77 4 0 19
-9 33 -20 24 -19 27 -19 45 -4 10 10 18 23 18 29 0 17 -137 145 -154 145 -7 0
-19 -7 -26 -15z"/>
<path d="M8545 2050 c-17 -19 -17 -21 17 -62 20 -24 65 -74 101 -113 65 -70
65 -70 86 -51 11 11 21 23 21 28 0 16 -180 218 -194 218 -7 0 -21 -9 -31 -20z"/>
<path d="M2222 1987 c-29 -31 -28 -80 3 -133 21 -35 22 -44 10 -54 -11 -9 -18
-7 -34 9 -12 12 -21 28 -21 36 0 17 -46 39 -61 29 -5 -3 -9 -20 -9 -38 0 -76
104 -141 169 -106 10 5 24 23 31 39 10 26 9 37 -15 90 -29 64 -26 94 6 65 10
-9 19 -23 19 -30 0 -15 43 -29 59 -19 30 18 -9 108 -55 125 -42 16 -79 12
-102 -13z"/>
<path d="M8390 1913 c-22 -8 -120 -84 -120 -93 0 -13 171 -225 184 -228 7 -1
20 6 30 17 18 19 17 21 -3 54 -11 19 -21 37 -21 40 0 14 35 15 67 2 47 -20 66
-19 88 5 21 23 18 28 -38 55 -31 14 -43 27 -45 45 -10 82 -73 128 -142 103z
m54 -69 c23 -9 20 -50 -6 -68 -42 -30 -87 24 -48 56 24 20 31 21 54 12z"/>
<path d="M8097 1705 c-40 -27 -67 -52 -67 -63 0 -9 33 -64 74 -122 56 -82 78
-105 96 -105 40 0 48 29 18 71 -30 42 -26 61 16 83 33 18 38 34 19 60 l-15 22
-44 -26 c-24 -14 -49 -23 -54 -20 -20 12 -9 41 25 64 36 24 44 48 23 69 -17
17 -16 17 -91 -33z"/>
<path d="M2650 1687 c-13 -7 -28 -26 -33 -44 -8 -25 -16 -32 -43 -37 -33 -7
-74 -46 -74 -73 0 -38 33 -76 88 -101 31 -14 71 -41 88 -60 36 -42 54 -36 47
16 -4 27 -1 42 11 51 23 19 20 38 -9 57 -34 22 -31 37 10 57 64 30 53 102 -20
133 -41 17 -34 17 -65 1z m58 -68 c-2 -6 -8 -10 -13 -10 -5 0 -11 4 -13 10 -2
6 4 11 13 11 9 0 15 -5 13 -11z m-76 -94 c14 -31 0 -50 -30 -41 -25 8 -36 34
-21 52 18 21 38 17 51 -11z"/>
<path d="M7798 1516 c-10 -7 -18 -24 -18 -37 0 -33 41 -265 50 -279 5 -8 14
-8 33 1 20 9 27 20 27 40 0 20 10 35 33 53 37 29 58 32 86 14 15 -9 24 -8 46
6 26 17 26 18 8 38 -37 42 -215 178 -231 178 -9 0 -25 -7 -34 -14z m107 -136
c0 -8 -8 -16 -17 -18 -13 -2 -18 3 -18 18 0 15 5 20 18 18 9 -2 17 -10 17 -18z"/>
<path d="M3067 1398 c-49 -90 -97 -186 -97 -197 0 -5 35 -28 77 -51 73 -40 77
-42 90 -24 20 28 12 47 -30 69 -20 11 -37 27 -37 34 0 8 21 55 46 105 l47 90
-23 18 c-12 10 -26 18 -30 18 -5 0 -24 -28 -43 -62z"/>
<path d="M7346 1285 c-88 -39 -100 -50 -85 -78 8 -14 19 -18 47 -15 l37 3 46
-95 c25 -52 51 -96 57 -98 15 -5 52 16 52 29 0 6 -18 52 -40 101 -22 50 -40
95 -40 99 0 5 11 15 25 21 20 9 25 18 23 37 -4 37 -30 36 -122 -4z"/>
<path d="M3342 1176 c-56 -57 -102 -108 -102 -113 0 -5 12 -15 26 -22 21 -9
31 -8 53 5 25 15 30 15 67 -3 29 -14 40 -25 42 -46 4 -33 53 -65 70 -44 6 7
14 78 18 159 7 141 6 146 -14 157 -40 21 -58 11 -160 -93z m98 -46 c0 -11 -7
-20 -15 -20 -15 0 -21 21 -8 33 12 13 23 7 23 -13z"/>
<path d="M3711 1166 c-13 -16 -91 -236 -91 -258 0 -18 45 -36 58 -24 3 4 16
33 28 64 11 31 25 57 30 57 5 0 19 -38 30 -84 30 -117 64 -134 97 -46 74 196
83 235 57 235 -5 0 -16 3 -24 6 -12 5 -22 -8 -41 -50 -27 -61 -40 -65 -50 -13
-19 92 -25 105 -55 115 -21 8 -31 7 -39 -2z"/>
<path d="M7065 1166 c-38 -16 -53 -35 -61 -74 -5 -26 -1 -36 24 -62 27 -27 37
-30 91 -30 47 0 61 -3 61 -15 0 -21 -35 -37 -65 -29 -47 12 -77 -43 -36 -66
46 -24 132 1 168 49 17 22 16 62 -2 88 -17 24 -72 46 -107 43 -39 -4 -48 -1
-48 15 0 15 10 19 43 15 47 -4 64 54 21 70 -33 13 -52 12 -89 -4z"/>
<path d="M6737 1058 c-14 -11 -18 -40 -23 -165 -5 -108 -4 -153 4 -153 29 0
61 21 64 42 3 21 26 38 74 52 13 4 29 -1 44 -14 27 -23 22 -23 55 -10 17 7 25
15 22 25 -3 7 -43 64 -89 124 -68 91 -87 111 -108 111 -15 0 -34 -6 -43 -12z
m78 -141 c0 -26 -20 -25 -23 2 -3 16 1 22 10 19 7 -3 13 -12 13 -21z"/>
<path d="M4062 1043 c-16 -30 -74 -254 -69 -267 5 -12 127 -46 163 -46 37 1
104 39 124 72 17 26 20 45 17 91 -4 70 -35 107 -111 136 -86 32 -113 35 -124
14z m146 -109 c37 -42 28 -95 -20 -120 -32 -16 -92 -12 -104 7 -6 11 13 103
28 133 13 25 66 15 96 -20z"/>
<path d="M6421 981 c-36 -9 -66 -22 -69 -30 -4 -11 25 -156 49 -244 10 -38 10
-39 51 -32 22 4 61 12 87 19 42 10 46 14 46 41 l0 30 -60 0 c-75 0 -83 23 -17
44 38 12 43 16 40 40 -3 24 -6 26 -53 26 -43 0 -50 3 -50 20 0 14 11 22 45 30
47 12 62 34 40 60 -15 18 -27 18 -109 -4z"/>
<path d="M4617 923 c-10 -16 -40 -260 -35 -274 4 -10 30 -20 76 -27 93 -16
100 -15 107 7 10 33 -5 49 -51 56 -26 3 -48 13 -51 21 -3 8 1 57 9 108 7 52
12 99 10 105 -4 12 -58 15 -65 4z"/>
<path d="M5883 881 c-50 -31 -54 -93 -8 -131 9 -7 37 -19 63 -25 50 -13 67
-39 34 -49 -11 -4 -31 -2 -45 5 -57 26 -93 -37 -37 -66 56 -29 145 -11 170 34
31 59 -1 110 -85 133 -67 18 -69 44 -4 40 33 -2 49 1 59 13 13 15 11 20 -13
41 -35 30 -89 32 -134 5z"/>
<path d="M4904 876 c-13 -33 -29 -267 -20 -276 14 -14 42 -12 54 3 10 12 32
186 32 252 0 32 -2 35 -30 35 -17 0 -33 -6 -36 -14z"/>
<path d="M5100 861 c-5 -11 -10 -78 -10 -150 0 -122 1 -130 20 -136 33 -11 49
12 52 73 2 30 8 57 14 59 6 2 30 -28 53 -67 38 -63 46 -71 69 -68 23 3 28 9
35 51 4 27 6 92 5 145 l-3 97 -30 0 c-29 0 -30 -2 -36 -53 -8 -65 -12 -70 -33
-40 -9 13 -30 42 -46 66 -33 47 -71 57 -90 23z"/>
<path d="M5600 829 c-24 -27 -46 -47 -51 -42 -4 4 -9 24 -11 43 -3 32 -6 35
-33 35 l-30 0 -3 -85 c-2 -47 0 -113 3 -148 l7 -63 31 3 c29 3 32 6 35 41 5
58 27 58 79 3 34 -37 49 -47 71 -44 41 5 37 27 -18 93 -27 33 -50 65 -50 71 0
6 18 36 41 67 22 32 37 62 34 67 -3 6 -19 10 -35 10 -22 0 -38 -12 -70 -51z"/>
<path d="M6182 761 c-8 -5 -12 -17 -10 -27 3 -15 12 -19 42 -18 42 2 61 15 53
38 -7 17 -62 22 -85 7z"/>
</g>
</svg>
