<?xml version="1.0" standalone="no"?>
<!DOCTYPE svg PUBLIC "-//W3C//DTD SVG 20010904//EN"
 "http://www.w3.org/TR/2001/REC-SVG-20010904/DTD/svg10.dtd">
<svg version="1.0" xmlns="http://www.w3.org/2000/svg"
 width="827.000000pt" height="812.000000pt" viewBox="0 0 827.000000 812.000000"
 preserveAspectRatio="xMidYMid meet">

<g transform="translate(0.000000,812.000000) scale(0.100000,-0.100000)"
fill="#000000" stroke="none">
<path d="M3880 8113 c-489 -38 -887 -128 -1310 -295 -399 -159 -822 -413
-1140 -687 -703 -605 -1173 -1395 -1350 -2271 -59 -291 -74 -446 -75 -770 0
-314 10 -444 51 -693 115 -683 412 -1334 859 -1884 106 -131 434 -458 565
-564 720 -582 1562 -901 2480 -939 438 -17 796 19 1218 125 600 151 1173 445
1662 856 222 186 502 491 680 739 408 571 642 1181 732 1910 20 158 16 666 -6
855 -94 817 -402 1529 -932 2160 -782 931 -1973 1475 -3203 1463 -103 -1 -206
-3 -231 -5z m475 -63 c680 -36 1277 -219 1870 -571 511 -304 963 -740 1298
-1250 572 -872 778 -1964 566 -2998 -218 -1056 -871 -1995 -1794 -2578 -158
-99 -505 -276 -665 -338 -337 -131 -718 -223 -1081 -260 -188 -19 -609 -19
-796 0 -702 71 -1387 329 -1944 731 -937 676 -1518 1661 -1655 2809 -26 213
-26 722 -1 920 115 896 487 1672 1118 2330 674 702 1657 1150 2639 1204 225
12 237 12 445 1z"/>
<path d="M3910 7963 c-942 -56 -1867 -469 -2525 -1128 -454 -455 -767 -955
-967 -1545 -90 -266 -164 -620 -189 -908 -15 -182 -7 -640 15 -810 98 -748
373 -1400 836 -1982 219 -274 544 -575 835 -771 480 -325 971 -529 1513 -629
387 -72 838 -85 1224 -35 1132 147 2141 771 2771 1714 571 855 780 1865 597
2887 -186 1032 -799 1962 -1680 2549 -565 376 -1185 593 -1860 650 -157 13
-420 17 -570 8z m310 -322 c38 -119 66 -191 76 -195 9 -3 101 -3 205 1 159 5
189 4 189 -8 -1 -8 -71 -63 -157 -124 -85 -60 -157 -115 -160 -122 -3 -7 23
-96 57 -198 34 -103 60 -189 57 -192 -4 -4 -210 142 -323 229 -7 5 -71 -35
-178 -113 -92 -67 -169 -120 -171 -117 -2 2 23 87 56 188 32 101 59 190 59
197 0 6 -15 23 -32 36 -18 13 -90 65 -160 116 -71 51 -128 98 -128 103 0 8 63
9 198 4 159 -6 201 -5 209 6 5 7 36 95 68 196 32 100 62 182 66 182 5 0 36
-85 69 -189z m-1493 -148 c37 -74 38 -80 38 -183 0 -99 -2 -109 -33 -172 -20
-42 -50 -83 -80 -109 -48 -42 -108 -77 -117 -67 -3 3 5 27 16 54 60 135 120
365 107 405 -3 8 -14 -20 -26 -61 -51 -173 -135 -390 -151 -390 -17 0 -60 95
-69 152 -19 131 22 231 149 361 54 55 94 87 107 87 16 0 29 -17 59 -77z m2977
30 c72 -62 140 -153 167 -223 29 -78 24 -193 -13 -272 -15 -32 -31 -58 -36
-58 -15 0 -67 126 -123 301 -30 90 -55 155 -57 143 -6 -39 35 -208 78 -319 61
-160 60 -150 19 -130 -172 88 -252 297 -184 485 21 58 61 120 79 120 8 0 39
-21 70 -47z m-2365 -222 c61 -19 151 -66 151 -79 0 -17 -94 -125 -140 -161
-105 -83 -217 -118 -320 -99 -57 10 -150 52 -150 67 0 13 134 67 295 119 187
60 207 78 53 48 -88 -18 -205 -55 -293 -95 -59 -27 -65 -28 -65 -11 0 10 20
44 44 77 97 128 269 182 425 134z m1823 8 c59 -13 130 -46 170 -81 36 -32 98
-116 98 -135 0 -18 -6 -17 -120 30 -94 39 -206 71 -290 82 -85 11 -51 -8 96
-54 146 -45 304 -109 304 -121 0 -17 -71 -51 -135 -65 -112 -23 -206 2 -321
87 -33 25 -82 74 -108 109 -53 71 -54 68 27 110 86 45 184 58 279 38z m-3177
-191 c21 -24 52 -72 69 -108 29 -60 31 -73 31 -170 0 -93 -3 -112 -26 -161
-28 -60 -128 -172 -136 -152 -2 6 3 44 12 85 19 87 31 352 17 388 -8 20 -11 6
-17 -70 -13 -185 -49 -400 -65 -400 -18 0 -81 86 -100 137 -38 102 -19 246 46
350 41 65 106 143 119 143 7 0 30 -19 50 -42z m4440 -15 c25 -32 62 -92 82
-133 32 -64 38 -87 41 -161 4 -73 1 -94 -20 -145 -25 -63 -75 -134 -94 -134
-19 0 -49 176 -69 405 -5 56 -10 74 -16 60 -15 -39 -9 -222 12 -345 11 -67 18
-124 15 -128 -12 -11 -103 96 -132 154 -26 54 -29 68 -29 164 0 92 3 112 26
160 31 65 105 160 125 160 7 0 34 -26 59 -57z m-3715 -108 c0 -3 -32 -21 -72
-41 -317 -160 -654 -423 -907 -709 -381 -430 -634 -928 -761 -1496 -26 -114
-60 -347 -60 -409 0 -45 0 -45 49 -63 98 -35 172 -158 157 -264 -17 -124 -119
-213 -244 -213 -73 0 -114 15 -167 61 -104 92 -112 254 -17 352 40 42 100 77
131 77 11 0 22 4 26 9 3 6 12 67 20 137 29 246 91 503 181 749 56 152 202 446
294 593 67 106 235 334 299 406 284 320 592 564 951 758 103 55 120 63 120 53z
m2997 -50 c576 -305 1071 -801 1374 -1380 180 -342 299 -720 348 -1102 11 -84
22 -157 26 -163 3 -5 15 -10 26 -10 35 0 115 -48 144 -86 100 -131 56 -317
-90 -385 -58 -27 -155 -25 -213 3 -122 62 -174 216 -113 337 26 49 94 108 143
123 35 10 38 14 38 47 0 106 -63 450 -116 634 -155 541 -437 1021 -834 1417
-224 225 -435 385 -710 539 -165 92 -179 109 -23 26z m-2832 -29 c68 -18 122
-47 175 -94 47 -42 104 -128 115 -174 6 -25 4 -28 -47 -43 -185 -55 -336 -41
-443 41 -38 28 -115 137 -115 161 0 12 9 13 43 8 67 -11 152 -33 290 -76 71
-23 131 -38 134 -35 17 17 -239 113 -362 136 -38 8 -74 17 -79 21 -10 9 60 46
111 58 57 13 122 12 178 -3z m2740 -2 c66 -17 112 -42 99 -54 -5 -4 -38 -13
-74 -20 -125 -23 -384 -119 -368 -136 3 -3 73 15 154 40 158 48 302 82 311 72
12 -12 -33 -91 -79 -138 -26 -27 -74 -61 -105 -76 -53 -25 -68 -27 -168 -26
-79 1 -129 8 -179 23 -38 11 -71 23 -74 25 -10 11 30 93 71 146 54 69 110 108
196 137 78 27 135 29 216 7z m-1170 -245 c298 -32 639 -135 925 -279 391 -198
778 -554 1027 -945 192 -303 327 -680 379 -1065 26 -189 24 -521 -5 -710 -79
-523 -289 -972 -641 -1376 -310 -355 -761 -641 -1227 -778 -408 -120 -864
-140 -1288 -55 -528 105 -1043 398 -1418 806 -304 330 -520 736 -622 1168 -48
200 -67 374 -68 605 0 224 8 322 48 525 142 716 591 1356 1220 1736 142 85
197 113 355 180 406 171 864 236 1315 188z m-3090 -99 c166 -114 224 -326 139
-506 -13 -27 -34 -60 -47 -72 l-24 -23 -6 123 c-8 165 -45 358 -69 358 -5 0
-7 -8 -4 -17 3 -10 12 -82 21 -160 17 -159 20 -313 6 -313 -23 0 -122 106
-148 158 -25 51 -28 67 -27 157 0 83 5 111 27 167 26 67 74 158 84 158 2 0 24
-13 48 -30z m5695 -64 c69 -146 78 -284 26 -390 -28 -56 -129 -161 -146 -151
-13 8 -13 123 0 240 6 50 12 124 15 165 l5 75 -20 -59 c-26 -77 -38 -155 -46
-299 l-7 -118 -22 21 c-45 43 -78 129 -83 218 -6 108 14 178 78 264 47 64 134
133 153 121 5 -3 27 -42 47 -87z m-4629 16 c35 -17 81 -45 102 -62 45 -38 100
-116 92 -130 -12 -19 -140 -78 -206 -95 -88 -23 -207 -17 -274 16 -51 24 -155
118 -155 140 0 14 308 6 424 -11 124 -19 89 6 -51 35 -43 9 -142 19 -220 22
-79 3 -143 9 -143 13 0 15 96 74 149 92 85 28 198 20 282 -20z m3779 6 c30
-14 71 -40 90 -56 l35 -31 -105 -1 c-120 -1 -225 -12 -322 -36 -68 -16 -98
-42 -35 -30 126 24 457 35 457 16 0 -18 -82 -100 -124 -125 -117 -67 -280 -60
-436 20 -90 46 -89 46 -46 103 52 68 126 122 205 150 90 31 202 27 281 -10z
m-4208 -485 c37 -17 87 -50 112 -74 53 -48 53 -47 -34 -114 -108 -83 -194
-116 -303 -116 -67 0 -88 4 -140 29 -69 34 -126 76 -115 87 13 14 182 44 336
62 110 12 148 19 136 26 -27 15 -268 1 -378 -22 -55 -12 -101 -19 -103 -17 -9
9 82 98 126 124 66 39 126 52 216 49 66 -3 94 -9 147 -34z m4651 -1 c58 -29
167 -126 154 -138 -2 -3 -47 5 -98 16 -103 23 -329 38 -375 25 -22 -6 6 -12
121 -26 157 -18 320 -47 344 -59 21 -11 -77 -84 -140 -105 -81 -27 -206 -18
-289 22 -70 32 -188 117 -197 140 -7 18 28 55 89 94 121 78 271 90 391 31z
m-5702 -208 c60 -41 118 -110 146 -172 37 -81 43 -196 14 -276 -28 -81 -37
-87 -51 -35 -29 118 -66 222 -106 306 -57 115 -86 144 -48 47 45 -116 113
-327 120 -373 7 -42 6 -43 -17 -36 -40 12 -104 52 -138 87 -99 101 -127 234
-89 428 17 91 20 93 80 70 28 -10 68 -31 89 -46z m6589 -17 c19 -92 23 -163
11 -232 -15 -84 -47 -147 -102 -203 -42 -42 -144 -100 -156 -89 -10 11 36 176
88 314 54 145 61 175 26 123 -39 -59 -96 -194 -123 -292 -36 -131 -32 -122
-48 -109 -27 23 -49 119 -44 199 9 156 114 294 267 353 55 21 64 15 81 -64z
m-5895 -301 c55 -14 130 -50 140 -66 19 -31 -147 -205 -241 -251 -107 -53
-262 -50 -339 7 -20 15 -20 15 4 33 27 21 211 99 318 135 105 36 122 49 53 41
-67 -7 -206 -54 -319 -106 -46 -22 -87 -37 -90 -34 -10 11 43 99 86 142 95 96
251 136 388 99z m5269 -7 c88 -29 170 -96 209 -172 17 -31 28 -60 25 -63 -3
-3 -32 8 -64 24 -78 39 -235 97 -304 112 -94 21 -102 7 -15 -24 114 -41 331
-132 356 -150 22 -15 22 -15 -11 -35 -85 -51 -228 -54 -327 -6 -61 30 -202
163 -236 222 l-17 32 43 25 c97 57 232 71 341 35z m-6315 -418 c121 -38 209
-112 259 -219 23 -49 27 -70 27 -154 0 -129 -11 -138 -58 -45 -66 128 -218
339 -234 323 -3 -3 27 -55 66 -116 67 -103 171 -288 171 -303 0 -14 -61 -6
-114 14 -97 36 -185 135 -218 244 -15 51 -27 177 -21 228 5 43 8 47 34 47 15
0 54 -8 88 -19z m7245 3 c18 -47 -1 -204 -36 -299 -42 -115 -196 -233 -289
-223 l-28 3 46 90 c25 50 79 141 120 204 41 62 71 116 68 120 -17 16 -166
-190 -230 -318 -47 -95 -60 -86 -60 47 0 85 3 104 27 152 54 109 132 178 247
217 79 27 126 29 135 7z m-6390 -189 c39 -8 74 -19 80 -25 17 -17 -78 -193
-139 -255 -61 -63 -155 -112 -232 -121 -62 -8 -165 12 -161 31 5 21 122 110
262 198 71 45 123 83 117 85 -31 10 -243 -112 -358 -206 -52 -41 -53 -42 -53
-17 0 47 40 131 89 186 58 65 127 105 214 124 81 18 99 18 181 0z m5576 4
c130 -21 257 -120 299 -234 19 -51 27 -95 17 -95 -2 0 -46 32 -98 71 -93 70
-285 175 -307 168 -7 -3 34 -33 91 -68 102 -64 282 -193 293 -212 11 -17 -48
-32 -130 -33 -70 -1 -88 3 -145 30 -103 49 -201 162 -247 286 -21 59 -15 67
64 84 74 16 85 16 163 3z m-5776 -1070 c57 -21 163 -86 182 -110 6 -8 18 -65
28 -128 72 -468 301 -962 614 -1331 676 -794 1762 -1126 2800 -855 916 240
1626 931 1905 1855 39 129 74 289 84 383 5 51 12 67 35 89 38 35 119 80 196
108 l62 23 55 -52 c70 -66 130 -92 215 -93 81 0 132 13 191 51 l47 29 39 -26
c107 -73 187 -160 238 -263 l24 -45 -24 -130 c-113 -610 -382 -1198 -773
-1685 -124 -155 -332 -372 -482 -503 -579 -507 -1297 -824 -2088 -922 -176
-21 -545 -29 -717 -15 -336 28 -636 88 -932 187 -570 190 -1041 473 -1457 874
-469 453 -795 971 -995 1582 -68 208 -121 428 -137 570 -6 54 -5 61 34 125 43
74 141 176 212 223 42 28 46 29 69 13 63 -41 90 -53 143 -61 117 -18 212 13
293 98 44 45 45 45 139 9z"/>
<path d="M813 4140 c-40 -24 -53 -48 -53 -99 0 -106 134 -148 200 -63 24 30
26 98 4 130 -19 27 -65 52 -96 52 -13 0 -37 -9 -55 -20z"/>
<path d="M7373 4140 c-40 -24 -53 -48 -53 -98 0 -99 122 -147 194 -76 53 54
39 146 -29 178 -44 21 -73 20 -112 -4z"/>
<path d="M3955 6594 c-375 -37 -661 -120 -980 -282 -577 -293 -1029 -815
-1248 -1442 -40 -114 -93 -331 -113 -465 -25 -167 -26 -543 -1 -705 64 -413
198 -763 415 -1080 93 -137 161 -220 287 -349 399 -411 891 -662 1475 -752
208 -32 516 -32 720 -1 315 50 546 123 813 259 616 313 1105 907 1291 1568 73
262 101 499 93 780 -21 668 -281 1262 -760 1737 -387 384 -874 626 -1437 713
-100 16 -465 28 -555 19z m1060 -254 c4 -7 -287 -10 -865 -10 -578 0 -869 3
-865 10 4 7 303 10 865 10 562 0 861 -3 865 -10z m450 -230 c-9 -14 -2621 -14
-2630 0 -4 7 437 10 1315 10 878 0 1319 -3 1315 -10z m305 -220 c0 -7 -547
-10 -1620 -10 -1073 0 -1620 3 -1620 10 0 7 547 10 1620 10 1073 0 1620 -3
1620 -10z m218 -222 c-4 -10 -380 -13 -1838 -13 -1458 0 -1834 3 -1837 13 -4
9 368 12 1837 12 1469 0 1841 -3 1838 -12z m-1483 -228 c-4 -7 -412 -10 -1191
-10 -783 0 -1184 3 -1184 10 0 7 404 10 1191 10 791 0 1188 -3 1184 -10z
m1665 0 c0 -7 -265 -10 -775 -10 -510 0 -775 3 -775 10 0 7 265 10 775 10 510
0 775 -3 775 -10z m-1503 -162 c48 -57 90 -105 93 -108 3 -3 30 -34 60 -70 30
-36 64 -75 75 -87 11 -12 67 -78 125 -147 108 -128 122 -137 172 -117 13 6
108 33 212 62 l188 51 23 -23 c12 -13 186 -215 386 -449 201 -234 409 -477
463 -540 l100 -115 -80 -3 c-72 -3 -81 -1 -97 20 -10 13 -29 34 -41 48 -18 21
-100 117 -480 560 -12 14 -88 103 -169 198 -81 94 -151 172 -155 172 -8 0
-141 -153 -379 -435 -23 -28 -111 -131 -197 -230 l-155 -180 -1 -226 0 -226
38 -7 c20 -3 65 -6 99 -6 131 0 788 -77 1028 -121 205 -37 462 -93 472 -102 6
-7 -90 -227 -141 -321 -37 -67 -136 -224 -162 -255 -2 -2 -61 21 -131 52 -511
220 -1157 320 -1848 288 -333 -16 -669 -51 -689 -71 -7 -7 94 -10 284 -10 655
0 1135 -72 1640 -246 227 -78 550 -222 550 -245 0 -3 -51 -55 -112 -115 -116
-112 -282 -244 -307 -244 -8 0 -37 15 -65 34 -28 18 -103 62 -166 97 -433 241
-973 402 -1550 463 -283 30 -839 56 -895 42 -52 -13 -11 -24 150 -41 911 -94
1593 -317 2189 -718 l69 -46 -78 -36 c-110 -50 -244 -99 -358 -131 l-96 -27
-193 96 c-287 142 -459 210 -816 322 -180 56 -802 195 -873 195 -30 0 -14 -15
31 -28 679 -205 1038 -349 1398 -564 l123 -73 -38 -8 c-55 -13 -453 -1 -559
16 -300 49 -513 115 -754 236 -377 189 -706 482 -945 842 -109 163 -255 460
-242 492 3 8 25 17 49 21 23 4 60 12 81 18 l37 11 0 255 0 255 -51 -7 c-29 -4
-66 -9 -83 -12 -27 -5 -12 13 119 142 232 228 467 457 733 714 l242 235 108
38 c59 21 141 51 182 66 l75 27 3 122 3 122 107 50 107 51 58 -28 c32 -15 63
-35 68 -45 5 -9 9 -44 9 -77 0 -42 4 -61 13 -61 13 0 144 45 557 191 151 54
280 98 287 99 7 0 52 -46 100 -102z m-1382 -58 c4 -7 -213 -10 -645 -10 -432
0 -649 3 -645 10 4 6 230 10 645 10 415 0 641 -4 645 -10z m585 0 c0 -5 -20
-10 -45 -10 -25 0 -45 5 -45 10 0 6 20 10 45 10 25 0 45 -4 45 -10z m2440 0
c0 -7 -255 -10 -745 -10 -490 0 -745 3 -745 10 0 7 255 10 745 10 490 0 745
-3 745 -10z m-3080 -230 c0 -7 -230 -10 -670 -10 -440 0 -670 3 -670 10 0 7
230 10 670 10 440 0 670 -3 670 -10z m3185 0 c-4 -7 -248 -10 -700 -10 -452 0
-696 3 -700 10 -4 7 232 10 700 10 468 0 704 -3 700 -10z m-3585 -220 c0 -7
-176 -10 -509 -10 -329 0 -512 4 -516 10 -4 7 168 10 509 10 337 0 516 -3 516
-10z m3670 0 c0 -6 -128 -10 -365 -10 -237 0 -365 4 -365 10 0 6 128 10 365
10 237 0 365 -4 365 -10z m-3905 -220 c4 -7 -138 -10 -419 -10 -277 0 -426 3
-426 10 0 7 146 10 419 10 269 0 422 -4 426 -10z m3960 0 c4 -7 -97 -10 -295
-10 -198 0 -299 3 -295 10 4 6 113 10 295 10 182 0 291 -4 295 -10z m-4190
-230 c-4 -6 -125 -10 -331 -10 -209 0 -324 4 -324 10 0 6 117 10 331 10 217 0
328 -3 324 -10z m4225 0 c0 -6 -78 -10 -215 -10 -137 0 -215 4 -215 10 0 6 78
10 215 10 137 0 215 -4 215 -10z m-1127 -137 c27 -5 27 -6 27 -89 l0 -84 -72
6 c-108 10 -108 10 -108 106 l0 81 63 -7 c34 -4 74 -10 90 -13z m206 -19 l61
-7 0 -89 0 -90 -37 6 c-21 3 -59 8 -85 12 l-48 6 0 84 c0 96 -8 90 109 78z
m-3534 -64 c4 -7 -72 -10 -220 -10 -148 0 -224 3 -220 10 4 6 88 10 220 10
132 0 216 -4 220 -10z m4475 0 c0 -6 -50 -10 -130 -10 -80 0 -130 4 -130 10 0
6 50 10 130 10 80 0 130 -4 130 -10z m-1122 -239 c2 -41 1 -79 -1 -86 -4 -8
-26 -8 -88 0 l-84 10 -3 79 c-2 48 1 82 8 86 5 3 45 1 88 -4 l77 -11 3 -74z
m185 53 l57 -6 0 -85 0 -85 -67 6 c-109 11 -103 5 -103 102 l0 86 28 -6 c15
-3 53 -8 85 -12z m-3773 -39 c0 -11 -165 -19 -189 -9 -14 5 -13 7 4 15 28 11
185 6 185 -6z m4695 5 c8 -13 -20 -24 -41 -16 -20 8 -9 26 16 26 10 0 22 -5
25 -10z m-4635 -230 c0 -5 -16 -10 -35 -10 -19 0 -35 5 -35 10 0 6 16 10 35
10 19 0 35 -4 35 -10z m0 -220 c0 -6 -39 -10 -96 -10 -61 0 -93 4 -89 10 3 6
46 10 96 10 53 0 89 -4 89 -10z m4565 0 c4 -6 -18 -10 -59 -10 -37 0 -66 4
-66 10 0 6 26 10 59 10 33 0 63 -4 66 -10z"/>
<path d="M4465 5213 c-63 -58 -436 -415 -709 -678 -137 -132 -275 -264 -307
-293 l-59 -54 0 -380 0 -380 218 7 c119 4 325 10 457 14 l240 6 3 154 c2 107
-1 157 -9 161 -6 4 -29 3 -52 -2 -22 -5 -46 -8 -54 -6 -7 2 55 75 139 163 83
88 219 232 302 320 83 88 197 208 254 268 56 59 102 114 102 122 0 7 -15 33
-33 57 -129 168 -210 273 -262 339 -33 41 -85 107 -115 147 -30 39 -60 72 -65
72 -6 0 -29 -17 -50 -37z m-117 -429 c21 -4 22 -9 22 -88 l0 -83 -52 4 c-75 7
-113 17 -112 31 1 7 2 44 3 83 l1 70 58 -6 c31 -3 67 -8 80 -11z m265 -31 c4
-2 7 -42 7 -88 l0 -83 -42 5 c-24 3 -61 9 -83 12 l-40 7 -3 83 -3 83 78 -7
c43 -4 81 -9 86 -12z m-304 -209 l61 -7 0 -85 0 -85 -77 7 c-42 4 -80 9 -84
11 -5 4 -5 148 0 163 2 4 35 2 100 -4z m265 -30 l46 -7 0 -85 0 -85 -77 7
c-42 4 -80 9 -85 12 -4 3 -8 41 -8 85 l0 79 39 0 c21 0 59 -3 85 -6z"/>
<path d="M7635 3435 c-22 -23 -37 -52 -44 -86 -6 -29 -9 -54 -7 -56 5 -6 186
-53 203 -53 16 0 33 63 33 123 0 42 -5 53 -31 78 -25 23 -40 29 -76 29 -39 0
-50 -5 -78 -35z m113 -31 c17 -11 22 -25 22 -56 l0 -41 -51 6 c-66 8 -81 20
-68 55 19 50 57 65 97 36z"/>
<path d="M460 3427 c0 -20 6 -28 25 -33 32 -8 46 -66 21 -93 -18 -20 -20 -30
-7 -50 14 -22 201 103 201 134 0 32 -17 41 -85 48 -33 4 -81 9 -107 13 -47 7
-48 6 -48 -19z m138 -59 c-6 -18 -28 -21 -28 -4 0 9 7 16 16 16 9 0 14 -5 12
-12z"/>
<path d="M636 3190 c-99 -32 -110 -39 -100 -64 5 -14 14 -16 40 -12 26 5 34 3
38 -12 4 -10 15 -28 27 -40 43 -47 129 -11 129 54 0 38 -24 105 -37 103 -4 0
-48 -14 -97 -29z m84 -65 c0 -33 -28 -45 -46 -20 -16 22 -2 45 27 45 14 0 19
-7 19 -25z"/>
<path d="M7544 3174 c-9 -21 -18 -52 -21 -70 l-5 -32 99 -31 c54 -17 102 -31
105 -31 9 0 48 121 42 131 -13 22 -43 8 -54 -26 -17 -52 -42 -47 -38 8 3 36 0
42 -18 45 -16 2 -24 -4 -32 -27 -13 -38 -47 -44 -38 -7 3 13 9 31 12 39 3 10
-3 20 -16 27 -18 10 -22 7 -36 -26z"/>
<path d="M7485 3001 c-3 -6 -17 -39 -30 -75 -24 -64 -24 -66 -6 -76 16 -8 23
-5 38 15 l18 24 75 -29 c70 -28 76 -29 88 -13 7 9 11 21 9 27 -2 5 -36 21 -77
36 -70 26 -75 30 -72 55 4 34 -28 60 -43 36z"/>
<path d="M602 2938 c2 -12 14 -28 27 -35 34 -16 55 -58 41 -82 -13 -26 -13
-61 1 -61 11 0 83 58 153 122 27 24 29 29 18 52 -11 26 -13 26 -127 26 -115 0
-116 0 -113 -22z m148 -47 c0 -5 -7 -11 -15 -15 -9 -3 -15 0 -15 9 0 8 7 15
15 15 8 0 15 -4 15 -9z"/>
<path d="M7386 2764 c-9 -22 -8 -22 103 -73 74 -34 95 -40 102 -29 18 28 7 39
-68 74 -100 46 -128 51 -137 28z"/>
<path d="M808 2722 c-97 -45 -106 -53 -89 -81 8 -12 14 -13 37 -2 40 18 51 0
25 -42 -18 -29 -19 -40 -11 -63 l11 -28 24 29 c13 17 24 34 25 38 0 4 16 5 35
1 30 -5 39 -2 65 24 16 17 30 40 30 52 0 18 -46 122 -53 119 -1 0 -46 -21 -99
-47z m92 -52 c13 -25 5 -40 -20 -40 -25 0 -43 33 -28 48 18 18 36 14 48 -8z"/>
<path d="M7324 2625 c-4 -16 1 -37 15 -60 12 -20 21 -40 21 -44 0 -5 -25 -12
-55 -16 -42 -5 -55 -11 -61 -27 -8 -26 -6 -27 97 -82 65 -35 88 -43 97 -34 21
21 13 37 -28 58 -22 11 -40 25 -40 30 0 6 18 10 40 10 44 0 47 7 24 51 -8 17
-13 33 -10 36 2 3 23 -5 46 -18 41 -23 42 -23 56 -5 7 10 11 23 8 27 -7 11
-176 99 -191 99 -7 0 -15 -11 -19 -25z"/>
<path d="M985 2538 c-2 -7 -3 -24 -2 -38 2 -20 -9 -30 -61 -61 -78 -46 -76
-43 -62 -69 11 -21 12 -21 88 21 l76 42 14 -22 c8 -11 21 -21 29 -21 28 0 24
31 -12 95 -34 61 -60 81 -70 53z"/>
<path d="M7170 2355 c-17 -20 -9 -28 90 -89 81 -50 95 -54 104 -30 9 22 5 27
-77 78 -93 58 -101 60 -117 41z"/>
<path d="M1037 2279 c-78 -53 -86 -62 -77 -79 13 -25 13 -25 66 6 47 28 55 20
29 -26 -21 -37 -19 -40 33 -40 l47 -1 -45 -39 c-42 -36 -44 -40 -28 -56 15
-15 22 -13 102 41 47 31 89 61 92 67 3 5 -2 18 -12 29 -14 16 -28 20 -64 17
-40 -3 -45 -1 -44 17 1 11 8 35 15 53 13 32 6 62 -17 68 -5 2 -48 -24 -97 -57z"/>
<path d="M7050 2175 c-6 -8 -9 -19 -6 -24 10 -15 162 -121 175 -121 6 0 27 25
48 56 30 46 34 57 22 65 -24 15 -39 10 -51 -15 -6 -14 -16 -27 -23 -30 -6 -2
-40 16 -75 40 -71 49 -73 50 -90 29z"/>
<path d="M1230 2009 c-41 -34 -77 -65 -78 -70 -5 -13 70 -110 82 -106 5 2 14
11 20 20 8 12 5 22 -13 41 -23 25 -21 46 4 46 8 0 19 -9 25 -20 11 -21 44 -27
55 -10 4 6 -3 26 -15 44 -30 49 -6 61 31 16 24 -28 31 -31 44 -20 8 7 15 17
15 22 0 15 -71 98 -84 98 -6 -1 -45 -28 -86 -61z"/>
<path d="M6842 1908 c-7 -7 -12 -19 -12 -27 0 -12 91 -183 106 -200 11 -12 35
26 31 48 -7 37 29 84 59 78 21 -4 65 26 53 37 -10 8 -196 76 -209 76 -9 0 -21
-5 -28 -12z m106 -80 c-6 -18 -25 -20 -31 -3 -5 10 0 15 14 15 12 0 19 -5 17
-12z"/>
<path d="M1375 1825 c-75 -69 -79 -75 -63 -91 16 -16 19 -15 58 16 22 18 43
30 46 28 2 -3 -3 -33 -12 -68 -14 -57 -14 -64 0 -78 14 -14 23 -9 93 55 43 39
78 76 78 83 0 7 -8 18 -17 24 -14 8 -23 5 -48 -19 -16 -15 -33 -26 -36 -22 -3
3 1 29 10 59 14 48 14 54 -1 70 -9 10 -19 18 -22 18 -3 -1 -42 -34 -86 -75z"/>
<path d="M6692 1733 c-57 -28 -79 -102 -48 -162 28 -52 112 -68 161 -29 52 40
67 123 22 116 -14 -2 -24 -14 -29 -36 -16 -62 -99 -67 -114 -7 -8 31 19 75 45
75 24 0 45 25 37 45 -7 19 -32 19 -74 -2z"/>
<path d="M1616 1693 c-4 -9 -2 -21 4 -27 19 -19 10 -42 -40 -91 -54 -53 -59
-65 -34 -86 14 -11 24 -5 76 50 58 60 61 62 79 45 18 -17 21 -17 36 -1 16 16
14 20 -37 72 -57 58 -74 66 -84 38z"/>
<path d="M6494 1555 c-4 -10 19 -44 61 -93 38 -42 71 -78 75 -80 4 -2 15 4 24
13 15 16 12 21 -36 77 -29 33 -59 68 -67 79 -16 23 -49 25 -57 4z"/>
<path d="M1767 1512 c-23 -25 -21 -60 3 -97 24 -37 25 -45 3 -45 -10 0 -26 14
-35 30 -10 18 -25 30 -38 30 -33 0 -26 -46 14 -86 39 -39 76 -44 106 -14 25
25 25 46 0 93 -22 41 -18 66 6 46 8 -6 14 -18 14 -25 0 -8 4 -14 9 -14 5 0 16
-3 25 -6 13 -5 16 1 16 25 0 64 -84 107 -123 63z"/>
<path d="M6342 1431 c-22 -16 -43 -34 -46 -39 -5 -8 24 -49 131 -181 2 -3 11
3 21 12 16 17 16 19 0 47 -21 37 -10 44 41 29 32 -9 44 -9 56 1 23 19 19 28
-19 44 -26 11 -35 21 -40 50 -13 69 -76 85 -144 37z m87 -35 c18 -21 -24 -63
-45 -45 -17 14 -18 31 -2 47 16 16 33 15 47 -2z"/>
<path d="M6158 1297 c-26 -17 -48 -36 -48 -41 0 -12 112 -176 121 -176 16 0
39 13 39 22 0 5 -9 23 -20 38 l-20 29 22 20 c12 12 25 21 30 21 12 0 10 24 -4
38 -9 9 -20 7 -46 -10 -28 -17 -36 -19 -43 -7 -6 10 0 22 23 40 21 18 29 32
25 43 -9 23 -26 20 -79 -17z"/>
<path d="M2067 1261 c-6 -17 -21 -32 -33 -35 -80 -21 -66 -106 23 -137 18 -6
39 -21 48 -35 21 -33 44 -32 37 2 -2 14 1 36 8 49 12 22 10 26 -10 43 l-24 19
32 17 c61 31 32 106 -41 106 -23 0 -31 -6 -40 -29z m63 -26 c0 -8 -4 -15 -10
-15 -5 0 -10 7 -10 15 0 8 5 15 10 15 6 0 10 -7 10 -15z m-52 -82 c4 -25 -16
-31 -36 -11 -20 20 -14 40 11 36 14 -2 23 -11 25 -25z"/>
<path d="M5937 1158 c-16 -12 -16 -19 2 -122 11 -59 22 -110 25 -113 13 -13
46 10 46 32 0 34 39 58 82 50 24 -5 38 -2 47 8 10 13 -2 27 -74 86 -48 39 -92
71 -99 71 -7 0 -20 -6 -29 -12z m81 -102 c3 -12 -1 -17 -10 -14 -7 3 -15 13
-16 22 -3 12 1 17 10 14 7 -3 15 -13 16 -22z"/>
<path d="M2417 1098 c-34 -56 -87 -160 -87 -171 0 -17 98 -70 116 -63 25 10
16 43 -16 56 -16 7 -30 17 -30 22 0 5 16 39 35 77 19 37 35 70 35 74 0 3 -9
11 -20 17 -16 8 -22 6 -33 -12z"/>
<path d="M5603 985 c-40 -19 -73 -38 -73 -43 0 -17 26 -31 47 -26 19 5 27 -4
59 -67 20 -41 38 -75 39 -77 2 -2 13 1 24 8 20 10 20 12 5 48 -49 113 -50 119
-25 139 19 15 20 21 9 35 -12 16 -18 14 -85 -17z"/>
<path d="M2609 904 c-68 -68 -81 -86 -69 -94 20 -13 44 -12 57 1 16 16 69 -15
77 -45 6 -25 34 -42 47 -29 5 5 11 58 15 118 l7 111 -25 11 c-24 11 -30 6
-109 -73z m71 -34 c0 -19 -11 -26 -23 -14 -8 8 3 34 14 34 5 0 9 -9 9 -20z"/>
<path d="M5394 900 c-24 -10 -54 -47 -54 -68 0 -7 11 -24 25 -37 19 -19 35
-25 70 -25 57 0 58 -23 1 -28 -40 -4 -56 -23 -36 -47 24 -29 91 -12 128 33 32
41 0 85 -69 92 -52 5 -68 23 -25 28 29 4 53 29 40 42 -15 14 -57 20 -80 10z"/>
<path d="M2871 878 c-4 -13 -20 -58 -36 -102 -23 -65 -25 -80 -14 -87 27 -17
37 -9 55 41 10 28 21 50 25 50 4 0 13 -26 20 -57 13 -64 30 -89 52 -80 17 6
82 191 72 207 -15 24 -42 9 -55 -31 -8 -22 -17 -42 -21 -45 -4 -2 -12 19 -18
48 -7 28 -16 58 -23 65 -17 20 -48 15 -57 -9z"/>
<path d="M5158 823 c-22 -5 -25 -21 -33 -146 l-6 -99 23 4 c13 2 28 15 36 30
14 30 66 48 85 29 13 -13 54 -15 61 -2 6 9 -124 184 -139 187 -5 1 -18 0 -27
-3z m52 -119 c0 -16 -16 -19 -25 -4 -8 13 4 32 16 25 5 -4 9 -13 9 -21z"/>
<path d="M3140 796 c-18 -49 -51 -187 -46 -195 3 -4 32 -14 65 -21 53 -11 63
-11 98 6 52 26 79 80 63 129 -14 42 -49 71 -102 86 -22 5 -46 13 -53 16 -9 3
-18 -5 -25 -21z m118 -73 c31 -43 3 -97 -51 -97 -20 0 -39 3 -43 7 -4 4 -2 32
5 63 13 56 13 56 44 50 18 -3 38 -14 45 -23z"/>
<path d="M4900 756 c-25 -7 -44 -17 -44 -22 9 -73 41 -197 52 -202 17 -6 120
16 127 28 3 4 2 16 -1 25 -5 13 -15 15 -51 9 -40 -6 -45 -5 -41 12 2 12 13 20
31 22 60 7 42 59 -18 53 -49 -4 -47 24 3 36 27 6 37 14 37 28 0 25 -32 28 -95
11z"/>
<path d="M3557 698 c-11 -47 -29 -189 -25 -194 9 -8 120 -24 129 -18 5 3 9 14
9 24 0 15 -9 21 -41 26 l-41 7 6 51 c4 28 10 68 13 89 5 34 4 37 -20 37 -17 0
-26 -7 -30 -22z"/>
<path d="M4506 679 c-53 -42 -28 -97 52 -114 19 -4 32 -13 32 -22 0 -12 -8
-15 -39 -10 -49 6 -70 -5 -55 -30 18 -29 70 -39 109 -20 66 31 53 106 -21 124
-47 11 -62 39 -17 30 51 -10 73 31 28 51 -37 17 -59 15 -89 -9z"/>
<path d="M3763 588 c-6 -57 -9 -106 -6 -110 6 -11 41 -10 47 0 3 5 8 54 12
110 l7 102 -25 0 c-25 0 -25 -3 -35 -102z"/>
<path d="M3915 587 c-9 -114 -6 -132 20 -132 16 0 22 10 29 53 5 28 12 52 16
52 3 0 19 -24 36 -52 19 -34 37 -54 51 -56 18 -3 23 3 28 40 3 24 5 75 3 113
-3 62 -5 70 -23 70 -16 0 -21 -9 -26 -42 -3 -24 -8 -45 -11 -48 -2 -3 -19 17
-36 45 -24 38 -37 50 -56 50 -23 0 -24 -3 -31 -93z"/>
<path d="M4205 668 c-3 -8 -4 -59 -3 -114 3 -98 3 -99 28 -99 21 0 26 5 28 33
4 42 24 41 58 -3 17 -22 35 -35 50 -35 37 0 35 13 -7 65 -21 28 -39 56 -39 63
0 7 14 31 31 55 l31 42 -28 3 c-23 3 -34 -4 -57 -32 -36 -44 -45 -45 -49 -4
-3 35 -33 52 -43 26z"/>
<path d="M4727 594 c-20 -20 -6 -35 31 -32 47 4 52 32 7 36 -17 2 -34 0 -38
-4z"/>
</g>
</svg>
